<?xml version="1.0" encoding="UTF-8"?>
<!DOCTYPE svg PUBLIC "-//W3C//DTD SVG 1.0//EN" "http://www.w3.org/TR/2001/REC-SVG-20010904/DTD/svg10.dtd">
<!-- Creator: CorelDRAW 2017 -->
<svg xmlns="http://www.w3.org/2000/svg" xml:space="preserve" width="338.65mm" height="677.412mm" version="1.0" style="shape-rendering:geometricPrecision; text-rendering:geometricPrecision; image-rendering:optimizeQuality; fill-rule:evenodd; clip-rule:evenodd"
viewBox="0 0 33865 67741"
 xmlns:xlink="http://www.w3.org/1999/xlink">
 <defs>
  <style type="text/css">
   <![CDATA[
    .fil18 {fill:#1E5C8F}
    .fil6 {fill:url(#id4)}
    .fil0 {fill:url(#id5)}
    .fil3 {fill:url(#id6)}
    .fil12 {fill:url(#id7)}
    .fil14 {fill:url(#id8)}
    .fil7 {fill:url(#id9)}
    .fil11 {fill:url(#id10)}
    .fil8 {fill:url(#id11)}
    .fil2 {fill:url(#id12)}
    .fil13 {fill:url(#id13)}
    .fil10 {fill:url(#id14)}
    .fil15 {fill:url(#id15)}
    .fil9 {fill:url(#id16)}
    .fil17 {fill:url(#id17)}
    .fil16 {fill:url(#id18)}
    .fil1 {fill:url(#id19);fill-opacity:0.258824}
    .fil4 {fill:url(#id20);fill-opacity:0.258824}
    .fil5 {fill:url(#id21);fill-opacity:0.701961}
   ]]>
  </style>
    <mask id="id0">
  <linearGradient id="id1" gradientUnits="userSpaceOnUse" x1="19169" y1="27814" x2="22503" y2="15691">
   <stop offset="0" style="stop-opacity:0; stop-color:white"/>
   <stop offset="0.560784" style="stop-opacity:-127.502; stop-color:white"/>
   <stop offset="1" style="stop-opacity:1; stop-color:white"/>
  </linearGradient>
     <rect style="fill:url(#id1)" x="-10" y="17697" width="33885" height="12839"/>
    </mask>
    <mask id="id2">
  <linearGradient id="id3" gradientUnits="userSpaceOnUse" x1="17470" y1="67735" x2="17765" y2="-12483">
   <stop offset="0" style="stop-opacity:0; stop-color:white"/>
   <stop offset="1" style="stop-opacity:1; stop-color:white"/>
  </linearGradient>
     <rect style="fill:url(#id3)" x="-10" y="-10" width="33885" height="67750"/>
    </mask>
  <linearGradient id="id4" gradientUnits="userSpaceOnUse" x1="17372" y1="20204" x2="16493" y2="30702">
   <stop offset="0" style="stop-opacity:1; stop-color:#85BAE6"/>
   <stop offset="0.690196" style="stop-opacity:1; stop-color:#B4D6F2"/>
   <stop offset="1" style="stop-opacity:1; stop-color:#E3F2FF"/>
  </linearGradient>
  <linearGradient id="id5" gradientUnits="objectBoundingBox" x1="44.6084%" y1="0.127461%" x2="55.3916%" y2="99.8725%">
   <stop offset="0" style="stop-opacity:1; stop-color:#4378A4"/>
   <stop offset="0.380392" style="stop-opacity:1; stop-color:#FAFBFD"/>
   <stop offset="1" style="stop-opacity:1; stop-color:white"/>
  </linearGradient>
  <linearGradient id="id6" gradientUnits="userSpaceOnUse" xlink:href="#id4" x1="17257" y1="15817" x2="16608" y2="30569">
  </linearGradient>
  <linearGradient id="id7" gradientUnits="userSpaceOnUse" x1="16757" y1="39493" x2="17108" y2="50171">
   <stop offset="0" style="stop-opacity:1; stop-color:#84BEE6"/>
   <stop offset="0.839216" style="stop-opacity:1; stop-color:#B3D8F2"/>
   <stop offset="1" style="stop-opacity:1; stop-color:#E3F2FF"/>
  </linearGradient>
  <linearGradient id="id8" gradientUnits="userSpaceOnUse" x1="15492" y1="42064" x2="18373" y2="67689">
   <stop offset="0" style="stop-opacity:1; stop-color:#468EC8"/>
   <stop offset="0.4" style="stop-opacity:1; stop-color:#79ACD7"/>
   <stop offset="0.478431" style="stop-opacity:1; stop-color:#4990C9"/>
   <stop offset="0.74902" style="stop-opacity:1; stop-color:#6CA7D6"/>
   <stop offset="1" style="stop-opacity:1; stop-color:#ACCBE6"/>
  </linearGradient>
  <linearGradient id="id9" gradientUnits="userSpaceOnUse" xlink:href="#id4" x1="17214" y1="23995" x2="16651" y2="40034">
  </linearGradient>
  <linearGradient id="id10" gradientUnits="userSpaceOnUse" xlink:href="#id4" x1="17214" y1="34402" x2="16651" y2="50440">
  </linearGradient>
  <linearGradient id="id11" gradientUnits="userSpaceOnUse" x1="17238" y1="26144" x2="16627" y2="39996">
   <stop offset="0" style="stop-opacity:1; stop-color:#92BCDE"/>
   <stop offset="0.262745" style="stop-opacity:1; stop-color:#BAD7EE"/>
   <stop offset="0.509804" style="stop-opacity:1; stop-color:#90C0E9"/>
   <stop offset="1" style="stop-opacity:1; stop-color:#E3F2FF"/>
  </linearGradient>
  <linearGradient id="id12" gradientUnits="userSpaceOnUse" x1="16651" y1="17677" x2="17214" y2="30556">
   <stop offset="0" style="stop-opacity:1; stop-color:#B8C6D1"/>
   <stop offset="0.290196" style="stop-opacity:1; stop-color:#E6EFF7"/>
   <stop offset="0.419608" style="stop-opacity:1; stop-color:#B2D0E8"/>
   <stop offset="0.819608" style="stop-opacity:1; stop-color:#C1C9D9"/>
   <stop offset="1" style="stop-opacity:1; stop-color:#E6E6E6"/>
  </linearGradient>
  <linearGradient id="id13" gradientUnits="userSpaceOnUse" x1="18127" y1="43058" x2="15738" y2="50297">
   <stop offset="0" style="stop-opacity:1; stop-color:#468EC8"/>
   <stop offset="0.223529" style="stop-opacity:1; stop-color:#79ACD7"/>
   <stop offset="0.270588" style="stop-opacity:1; stop-color:#4990C9"/>
   <stop offset="1" style="stop-opacity:1; stop-color:#ACCBE6"/>
  </linearGradient>
  <linearGradient id="id14" gradientUnits="userSpaceOnUse" x1="7927" y1="33641" x2="6994" y2="50404">
   <stop offset="0" style="stop-opacity:1; stop-color:#6F9CBF"/>
   <stop offset="0.266667" style="stop-opacity:1; stop-color:#A9C7DF"/>
   <stop offset="0.388235" style="stop-opacity:1; stop-color:#6FA8D5"/>
   <stop offset="1" style="stop-opacity:1; stop-color:#E3F2FF"/>
  </linearGradient>
  <linearGradient id="id15" gradientUnits="userSpaceOnUse" x1="8689" y1="51847" x2="6233" y2="64716">
   <stop offset="0" style="stop-opacity:1; stop-color:#4880B0"/>
   <stop offset="0.145098" style="stop-opacity:1; stop-color:#95B9D7"/>
   <stop offset="0.2" style="stop-opacity:1; stop-color:#5592C7"/>
   <stop offset="1" style="stop-opacity:1; stop-color:#E3F2FF"/>
  </linearGradient>
  <linearGradient id="id16" gradientUnits="userSpaceOnUse" x1="14199" y1="29118" x2="722" y2="47935">
   <stop offset="0" style="stop-opacity:1; stop-color:#6FA8D5"/>
   <stop offset="0.329412" style="stop-opacity:1; stop-color:#A9CDEA"/>
   <stop offset="1" style="stop-opacity:1; stop-color:#E3F2FF"/>
  </linearGradient>
  <linearGradient id="id17" gradientUnits="userSpaceOnUse" x1="7432" y1="53832" x2="7490" y2="67893">
   <stop offset="0" style="stop-opacity:1; stop-color:#4C87B8"/>
   <stop offset="0.427451" style="stop-opacity:1; stop-color:#5A8FBA"/>
   <stop offset="0.580392" style="stop-opacity:1; stop-color:#5588B3"/>
   <stop offset="1" style="stop-opacity:1; stop-color:#6897BD"/>
  </linearGradient>
  <linearGradient id="id18" gradientUnits="userSpaceOnUse" x1="7749" y1="50015" x2="7173" y2="67975">
   <stop offset="0" style="stop-opacity:1; stop-color:#437FB1"/>
   <stop offset="0.321569" style="stop-opacity:1; stop-color:#93B8D8"/>
   <stop offset="0.360784" style="stop-opacity:1; stop-color:#4682B3"/>
   <stop offset="1" style="stop-opacity:1; stop-color:#E3F2FF"/>
  </linearGradient>
  <linearGradient id="id19" gradientUnits="userSpaceOnUse" x1="21973" y1="11603" x2="22044" y2="19507">
   <stop offset="0" style="stop-opacity:1; stop-color:#A5BED3"/>
   <stop offset="0.341176" style="stop-opacity:1; stop-color:#4E80A9"/>
   <stop offset="0.8" style="stop-opacity:1; stop-color:#FAFBFD"/>
   <stop offset="1" style="stop-opacity:1; stop-color:white"/>
  </linearGradient>
  <linearGradient id="id20" gradientUnits="userSpaceOnUse" xlink:href="#id19" x1="10864" y1="18697" x2="10932" y2="26299">
  </linearGradient>
  <linearGradient id="id21" gradientUnits="userSpaceOnUse" xlink:href="#id11" x1="9619" y1="20398" x2="9103" y2="26381">
  </linearGradient>
 </defs>
 <g id="Layer_x0020_1">
  <metadata id="CorelCorpID_0Corel-Layer"/>
  <g id="_1704041237920">
   <rect class="fil0" width="33865" height="67730"/>
   <polygon class="fil1" points="20640,13076 21907,12295 22501,11604 23137,12668 24045,13069 24659,13730 25058,13781 25685,14142 25997,14435 26639,15403 27576,16057 29485,17120 31250,18443 33865,19506 10153,19506 14187,16919 15445,15943 16643,15148 17289,14764 17980,14347 19136,13861 "/>
   <polygon class="fil2" style="mask:url(#id0)" points="33865,17707 32104,17927 30337,18001 29194,18089 28221,18263 26812,18078 24009,17946 21529,19127 20631,18905 19437,19235 18192,19037 15655,19204 15273,19267 14814,19686 14387,19772 12604,19438 11104,18903 9705,18642 7858,18736 0,19254 0,30525 33865,30525 "/>
   <path class="fil3" d="M0 15840c232,130 515,224 747,354 83,46 114,129 197,176 102,89 214,117 315,206 76,67 142,194 218,261 299,249 621,456 1017,553 237,25 448,104 685,128 253,26 530,-1 783,25 215,6 429,13 644,19 256,45 548,157 804,201 37,5 486,-4 711,23 217,103 476,154 693,257 229,109 416,269 645,378 277,178 553,355 830,533 73,7 146,63 219,71 329,36 77,261 513,375 147,43 293,85 440,128 148,43 247,115 395,158 35,31 112,-2 149,28 57,45 93,101 148,146 115,96 31,239 143,343 19,18 140,253 159,269 114,89 528,-68 596,30 47,67 28,37 230,72 0,0 195,268 196,292 1,156 -10,41 230,209 140,98 107,17 226,90 114,71 28,206 142,294 76,58 30,210 128,262 179,96 499,88 529,189 59,196 496,270 646,437 210,233 399,346 571,544 90,104 139,330 264,397 572,308 1067,674 1598,1013 323,46 783,-25 1106,21 525,75 914,268 1439,343 1773,1115 1577,1487 2246,1460 512,-21 1808,-206 3213,-888 421,-192 542,-525 963,-717 359,-164 283,-132 455,-493 112,-234 301,-377 419,-568 118,-192 363,-274 452,-498 38,-94 185,-100 227,-153 136,-171 231,-227 452,-347 27,-15 244,-220 273,-234 244,-121 248,-29 501,-130 261,-238 660,-437 921,-675 47,-15 -33,-19 13,-77 7,-9 66,-11 78,-23 68,-74 117,-209 191,-219 309,-41 583,93 697,58 296,-47 532,-124 765,-161 292,-47 429,1 800,-58 288,-103 612,-338 844,-480 148,-19 296,-78 443,-97 126,-16 252,8 378,-8 52,22 121,21 173,43 57,24 96,71 153,94 73,18 177,13 250,31 210,51 389,125 599,176l0 9841 -33865 -40c0,-4888 0,-9777 0,-14666z"/>
   <path class="fil4" d="M4644 19594l490 -195 217 -394c230,-365 272,-156 450,-280 140,-97 186,128 434,557 82,46 185,36 267,82 155,88 343,327 498,415 242,96 483,192 725,288 212,57 422,127 637,172 270,56 188,27 286,632 -15,91 120,330 105,421 202,323 705,168 906,491l294 552 1066 424 2099 1302 424 947 1386 500 7991 708 -22919 77 0 -2997c252,-325 1008,-317 1260,-642 247,-265 494,-530 741,-796 135,-128 271,-256 406,-383 144,-139 289,-278 433,-418 252,-162 505,-324 757,-485 79,-64 505,-122 630,-199 192,-118 95,-260 231,-393 137,-133 65,-286 187,-386z"/>
   <path class="fil5" d="M11932 21166l-373 -149 -165 -301c-176,-279 -208,-119 -343,-213 -107,-74 -142,98 -331,425 -63,35 -141,27 -203,62 -118,67 -262,250 -380,316 -184,73 -368,146 -553,220 -162,44 -322,97 -486,131 -138,29 -143,49 -189,144 -23,47 -231,-28 -188,169 6,35 -59,173 -282,143 -220,-30 -280,60 -275,95 -154,246 -273,188 -427,435l-224 421 -443 514 -1600 993 -323 722 -1057 381 -4089 617 18722 -63 -3098 -2048c-192,-248 -919,-435 -1111,-683 -188,-202 -377,-404 -565,-607 -103,-97 -206,-195 -310,-292 -110,-106 -220,-212 -330,-318 -192,-123 -385,-247 -577,-370 -60,-49 -385,-93 -481,-152 -146,-90 -73,-198 -176,-299 -104,-102 -50,-218 -142,-294z"/>
   <path class="fil6" d="M33865 25625c-232,130 -515,224 -747,354 -83,46 -114,129 -197,176 -102,89 -214,117 -315,206 -76,67 -142,194 -218,261 -299,249 -621,456 -1017,553 -3189,333 -1317,-709 -3151,-709 -217,103 -631,-1115 -848,-1012 -229,109 -1659,-710 -1888,-601 -277,178 -553,355 -830,533 -73,7 -146,63 -219,71 -329,36 -367,-432 -804,-318 -147,43 -478,-285 -625,-243 -148,43 -247,115 -395,158 -35,31 -112,-2 -149,28 -57,45 -93,101 -148,146 -115,96 -247,182 -359,286 -19,18 -36,77 -55,94 -498,386 -362,-66 -813,251 -527,369 -976,-871 -1073,-546 -184,615 -167,-232 -701,55 -572,308 -305,-577 -835,-237 -323,46 -1206,-853 -1529,-807 -525,75 -914,268 -1439,343 -1773,1115 -1577,1487 -2246,1460 -512,-21 -1808,-206 -3213,-888 -421,-192 -542,-525 -963,-717 -359,-164 -283,-132 -455,-493 -112,-234 -301,-377 -419,-568 -118,-192 -363,-274 -452,-498 -38,-94 -185,-100 -227,-153 -136,-171 -231,-227 -452,-347 -27,-15 -244,-220 -273,-234 -244,-121 -248,-29 -501,-130 -261,-238 -660,-437 -921,-675 -47,-15 33,-19 -13,-77 -7,-9 -66,-11 -78,-23 -68,-74 -117,-209 -191,-219 -309,-41 -583,93 -697,58 -296,-47 -532,-124 -765,-161 -292,-47 -429,1 -800,-58 -288,-103 -612,-338 -844,-480 -148,-19 -296,-78 -443,-97 -126,-16 -252,8 -378,-8 -52,22 -121,21 -173,43 -57,24 -96,71 -153,94 -73,18 -177,13 -250,31 -210,51 -389,125 -599,176l0 9841 33865 -40c0,-4888 0,7 0,-4881z"/>
   <path class="fil7" d="M0 30394c232,248 832,-1157 1065,-909 82,88 675,591 777,760 414,691 1438,-858 2262,-811 256,85 495,-666 751,-581 37,9 407,-476 632,-424 217,196 476,294 693,490 229,207 416,513 645,720 277,339 315,155 592,494 411,72 1027,-64 1261,53 147,81 478,-544 625,-463 148,82 247,218 395,300 35,59 112,-3 149,53 57,86 93,193 148,279 115,182 882,-1012 994,-814 566,1001 408,43 868,658 527,703 976,-1660 1073,-1040 184,1172 167,-443 701,105 572,587 704,-571 1235,76 323,88 1218,-1239 1541,-1151 287,78 317,-190 527,-353 125,-97 413,-38 585,-174 154,-122 -35,-406 377,-401 136,2 216,-417 337,-479 365,-185 496,-54 676,-208 170,-144 20,-199 551,-120 615,92 511,-59 728,-305 131,-149 632,-333 764,-520 191,-272 616,-235 1098,-326 319,-60 648,-265 1005,-332 334,-63 589,-349 932,-385 457,-48 634,-528 1093,-242 374,233 1159,194 1725,489 253,132 354,474 569,618 244,164 545,91 772,148 265,66 450,242 618,149 278,-155 583,178 697,110 296,-90 532,-235 765,-307 292,-89 429,3 800,-110 288,-197 282,-36 513,-306 148,-36 200,-202 347,-238 126,-31 277,-139 404,-170 52,42 324,103 376,144 57,45 268,373 325,418 73,34 343,513 416,547 210,97 249,493 459,590l0 13345 -33865 -75c0,-9318 0,14 0,-9304z"/>
   <path class="fil8" d="M33865 37017c-232,206 -832,-960 -1065,-754 -82,73 -675,490 -777,631 -414,574 -270,-1000 -1094,-961 -256,71 -903,-1020 -1159,-949 -37,7 -445,-550 -670,-507 -217,163 -920,149 -1137,311 -229,172 -694,108 -923,280 -277,281 -315,128 -592,410 -411,60 -1027,-53 -1261,44 -147,67 -478,-451 -625,-384 -148,68 -247,181 -395,249 -191,118 -325,-210 -488,-275 -374,-150 -702,-272 -803,-124 -309,454 -1149,-916 -1179,-901 -581,285 -929,-1016 -1463,-1016 -751,0 -704,-1397 -1341,-1310 -323,73 -1112,-1673 -1435,-1600 -287,65 -317,-158 -527,-293 -125,-81 -413,-31 -585,-144 -154,-101 35,-337 -377,-333 -136,1 -216,-346 -337,-397 -281,-118 -686,137 -972,173 -615,76 -765,-493 -983,-698 -131,-124 -712,-109 -843,-264 -191,-226 -536,-666 -1018,-741 -590,-92 -1082,45 -1593,0 -457,-40 -978,-730 -1437,-493 -374,193 -657,-785 -1222,-540 -24,10 -587,-147 -906,0 -183,85 -233,282 -531,327 -515,79 -442,607 -734,672 -299,67 -477,86 -591,30 -296,-75 -929,572 -1162,513 -409,-104 -447,188 -673,182 -938,-26 -1497,761 -2138,1007 -210,81 -620,970 -830,1051l0 9562 33865 -62c0,-7734 0,5039 0,-2695z"/>
   <path class="fil9" d="M1646 39771c14,-12 23,-19 26,-18 788,285 1261,-1016 1985,-1016 1019,0 955,-1397 1819,-1310 438,73 1509,-1673 1947,-1600 390,65 431,-158 715,-293 170,-81 560,-31 794,-144 209,-101 -48,-337 511,-333 185,1 293,-346 457,-397 382,-118 693,-180 1081,-145 835,76 642,63 937,-142 178,-124 807,-279 986,-434 260,-226 357,-720 1011,-795 800,-92 125,-329 817,-374 620,-40 1327,-730 1950,-493 508,193 891,-785 1658,-540 32,10 797,-147 1229,0 249,85 316,282 720,327 698,79 600,607 997,672 405,67 647,86 802,30 402,-75 1260,572 1577,513 273,-51 557,845 1294,992 760,151 1601,486 1756,483 1272,-26 1292,403 2161,649 285,81 1952,397 2237,478l2752 1138 0 8351 -33865 13 0 -5682 1646 72z"/>
   <path class="fil10" d="M6769 41446c420,297 1507,-1385 1927,-1088 149,105 1222,707 1406,910 749,827 488,-1441 1980,-1386 464,102 1635,-1471 2098,-1369 67,10 805,-793 1212,-731 392,235 1665,214 2058,449 415,248 1255,156 1670,404 501,406 676,-132 1177,273 426,49 868,334 1337,324 351,-8 526,-400 707,-340 265,97 998,-254 1263,-157 268,98 394,-307 662,-209 345,170 641,94 936,0 677,-216 901,-671 1083,-457 130,152 388,-272 654,-397 350,-164 734,-102 1050,-421 480,-485 1068,-465 1093,-455 350,137 785,-271 1070,-487 571,-434 643,-557 1287,-555 294,1 200,-310 296,-502 82,-165 365,-199 456,-370 119,-223 416,-283 573,-496 73,-99 282,-138 419,-225 192,-121 326,-277 485,-296l197 0 0 16240 -33865 75 0 -6545c0,-1098 3845,-296 6769,-2189z"/>
   <path class="fil11" d="M29737 47691c-167,178 -4632,-5019 -6057,-4309 -147,81 -796,-2184 -942,-2103 -32,17 285,-522 -923,-265 -103,22 -420,-21 -634,-489 -140,-306 -252,-342 -483,-251 -162,64 -58,-227 -282,-288 -77,-21 -241,-346 -377,-206 -173,178 -468,76 -684,-5 -209,-79 -143,-242 -322,-400 -244,-216 -444,-450 -668,-368 -323,88 -583,-499 -906,-411 -287,78 -317,-190 -527,-353 -125,-97 -413,-38 -585,-174 -154,-122 35,-406 -377,-401 -136,2 -216,-417 -337,-479 -365,-185 -496,-54 -676,-208 -170,-144 -20,-199 -551,-120 -615,92 -511,-59 -728,-305 -131,-149 -632,-333 -764,-520 -191,-272 -616,-235 -1098,-326 -319,-60 -648,-265 -1005,-332 -334,-63 -589,-349 -932,-385 -457,-48 -634,-528 -1093,-242 -374,233 -1159,194 -1725,489 -253,132 -354,474 -569,618 -244,164 -545,91 -772,148 -265,66 -450,242 -618,149 -278,-155 -583,178 -697,110 -296,-90 -532,-235 -765,-307 -292,-89 -429,3 -800,-110 -288,-197 -282,-36 -513,-306 -148,-36 -200,-202 -347,-238 -126,-31 -277,-139 -404,-170 -52,42 -324,103 -376,144 -57,45 -268,373 -325,418 -73,34 -343,513 -416,547 -210,97 -249,493 -459,590l0 13345 33865 -75 -4128 -2414z"/>
   <path class="fil12" d="M33865 47551c-232,136 -869,-458 -1101,-322 -82,48 -607,-180 -690,-131 -102,93 -377,-394 -478,-302 -76,69 -825,-366 -901,-297 -299,260 -807,-301 -1202,-200 -860,-251 6,-419 -1272,-412 -217,107 -1509,-1257 -1726,-1150 -229,113 -781,-646 -1010,-533 -277,185 -553,371 -830,556 -73,7 -146,66 -219,74 -329,38 -367,-450 -804,-331 -147,44 -478,-298 -625,-253 -148,45 -35,-105 -183,-61 -35,32 -205,-2 -242,29 -57,47 -119,-133 -174,-86 -115,100 -141,-273 -254,-165 -19,18 -327,-78 -346,-61 -498,403 -292,166 -800,-69 -110,-51 -497,-372 -772,-384 -266,-12 -747,122 -750,124 -572,321 -715,-654 -1245,-300 -152,23 -379,-132 -610,-297 -260,-186 -527,-385 -697,-359 -253,38 -471,83 -688,129 -232,49 -463,99 -735,140 -275,180 -475,367 -673,414 -309,74 -482,101 -610,88 -196,-19 -253,-127 -645,-96 -243,19 -511,-300 -779,-415 -294,-126 -608,-91 -1343,-463 -421,-200 -1197,-48 -1618,-248 -359,-171 -586,226 -758,-150 -112,-244 -463,-57 -581,-256 -118,-200 -481,218 -570,-16 -38,-98 -225,-100 -267,-155 -136,-178 -224,-133 -446,-258 -27,-15 -396,-309 -425,-324 -244,-126 -231,-151 -485,-256 -236,-72 -397,175 -658,-73 -47,-15 -234,-74 -280,-134 -7,-9 -66,-11 -78,-24 -68,-77 -117,-218 -191,-228 -309,-43 -583,97 -697,60 -296,-49 -532,-129 -765,-168 -292,-49 -429,2 -800,-60 -288,-108 -612,-353 -844,-500 -148,-20 -296,-81 -443,-101 -126,-17 -252,9 -378,-8 -52,23 -121,22 -173,44 -57,25 -96,74 -153,98 -73,18 -177,13 -250,32 -210,53 -389,130 -599,183l0 10263 33865 -41c0,-2551 0,-2551 0,-2551z"/>
   <path class="fil13" d="M5733 48404c420,128 1624,-1217 2044,-1089 149,45 1801,-172 1985,-85 749,355 723,-454 2215,-430 463,44 1635,-416 2098,-373 67,4 1850,-573 2257,-546 392,101 1467,628 1859,729 415,107 1308,-289 1723,-183 501,174 1104,-332 1604,-158 426,21 419,22 889,18 351,-3 626,-432 807,-406 265,42 443,-42 708,0 268,42 315,-542 583,-500 345,73 694,31 989,-10 677,-93 610,-483 792,-392 130,65 388,-117 654,-171 350,-71 734,-44 1050,-181 480,-208 1068,-200 1093,-195 350,59 785,-116 1070,-209 571,-187 643,-239 1287,-238 294,0 200,-133 296,-215 82,-71 365,-85 456,-159 119,-96 416,-122 573,-213 73,-43 282,-59 419,-97 192,-52 326,-119 485,-127l197 0 0 6974 -33865 32 1693 -1077c398,-253 1115,114 4040,-700z"/>
   <path class="fil14" d="M33865 49166c-232,114 -869,-385 -1101,-271 -82,41 -607,-151 -690,-111 -102,78 -377,-332 -478,-254 -76,59 -825,-308 -901,-250 -299,219 -807,-254 -1202,-169 -860,-212 6,-353 -1272,-347 -217,90 -1509,-1059 -1726,-969 -229,96 -781,-544 -1010,-449 -277,156 -553,312 -830,468 -73,6 -146,55 -219,62 -329,32 -367,-379 -804,-279 -147,37 -478,-251 -625,-213 -148,38 -35,-89 -183,-51 -35,27 -205,-1 -242,25 -57,40 -119,-112 -174,-72 -115,84 -141,-230 -254,-139 -19,15 -327,-66 -346,-51 -498,339 -292,140 -800,-58 -110,-43 -497,-313 -772,-323 -266,-10 -747,103 -750,104 -572,270 -715,-551 -1245,-253 -152,19 -379,-111 -610,-250 -260,-157 -527,-324 -697,-303 -253,32 -471,70 -688,109 -232,42 -463,83 -735,118 -275,152 -475,309 -673,349 -309,62 -482,85 -610,74 -196,-16 -253,-107 -645,-81 -243,16 -511,-253 -779,-349 -294,-106 -608,-77 -1343,-390 -421,-168 -1197,-41 -1618,-209 -359,-144 -586,190 -758,-126 -112,-206 -463,-48 -581,-216 -118,-168 -481,184 -570,-13 -38,-83 -225,-84 -267,-131 -136,-150 -224,-112 -446,-218 -27,-13 -396,-260 -425,-273 -244,-106 -231,-127 -485,-216 -236,-61 -397,148 -658,-62 -47,-13 -234,-62 -280,-113 -7,-8 -66,-10 -78,-21 -68,-65 -117,-184 -191,-192 -309,-36 -649,-821 -763,-852 -296,-42 -386,-145 -620,-177 -207,-29 -363,109 -575,375 -88,110 -26,295 -134,280 -288,-91 -368,167 -599,43 -148,-16 -398,104 -545,87 -126,-14 -380,545 -506,531 -52,19 -307,640 -358,659 -57,21 -96,62 -153,83 -73,16 -177,11 -250,27 -210,45 -389,109 -599,154l0 23465 33865 -35c0,-2149 0,-18530 0,-18530z"/>
   <path class="fil15" d="M1646 59452c14,-11 23,-16 26,-15 788,246 7876,-842 8600,-842 1019,0 955,-1204 1819,-1129 438,63 1509,-1442 1947,-1379 390,56 431,-136 715,-252 170,-70 560,-27 794,-124 209,-87 -48,-290 511,-287 185,1 293,-298 457,-342 382,-102 693,-156 1081,-125 835,66 642,54 937,-122 178,-107 807,-241 986,-374 260,-194 357,-620 1011,-685 800,-79 125,-284 817,-323 620,-35 921,-665 1545,-460 238,78 882,-87 1148,-300 302,-242 640,-502 1048,-389 32,9 664,132 1097,259 249,73 316,243 720,282 698,68 600,523 997,579 405,58 647,74 802,26 402,-65 1259,399 1577,442 2404,324 1663,1006 3585,1691l0 8693 -33865 11 0 -4896 1646 62z"/>
   <path class="fil16" d="M1176 58366c10,-12 16,-18 19,-17 564,278 5630,-952 6148,-952 728,0 683,-1362 1300,-1277 313,71 1079,-1631 1392,-1560 279,63 308,-154 511,-285 122,-79 401,-30 568,-141 149,-98 -34,-329 365,-325 132,1 209,-337 327,-387 273,-115 495,-176 773,-141 597,74 459,61 670,-139 127,-120 577,-272 705,-423 186,-220 255,-701 723,-775 572,-90 89,-321 584,-365 443,-39 659,-752 1104,-521 170,88 631,-98 821,-339 216,-274 457,-568 749,-440 23,10 475,150 784,293 178,82 226,275 515,319 499,77 429,592 712,655 290,65 462,84 573,29 287,-73 900,451 1127,500 1718,367 1189,1138 2563,1912 493,414 611,221 871,757 114,236 760,193 944,392 219,237 581,535 852,465 74,-19 315,55 586,216 96,57 337,185 496,174 145,-10 240,247 424,545 131,211 379,184 445,242 257,225 798,34 1068,254 258,210 203,230 472,450 136,111 206,111 343,227 77,65 560,-14 699,245 61,113 314,167 348,195 270,-17 246,65 512,130 272,67 358,-128 547,0 187,126 863,-15 1048,111l0 3236 0 6102 -33865 11 0 -9446 1176 70z"/>
   <path class="fil17" d="M926 54702c10,-12 440,-1 442,0 194,117 194,-111 350,-122 75,-5 329,181 510,55 73,-51 272,112 396,178 120,64 178,62 264,62 110,0 271,107 333,147 92,59 175,133 216,207 52,95 378,345 636,293 503,-102 111,194 903,437 712,219 599,-315 1852,43 700,200 1199,31 1816,116 72,16 538,-50 1094,-132 774,-114 1194,285 1503,288 1614,16 1218,-843 1951,-751 743,93 479,577 1057,0 203,-203 1049,229 1517,156 572,-90 89,-321 584,-365 443,-39 659,-752 1104,-521 170,88 631,-98 821,-339 216,-274 457,-568 749,-440 23,10 475,150 784,293 178,82 226,275 515,319 499,77 429,592 712,655 290,65 462,84 573,29 185,-47 354,-165 540,-42 103,68 291,195 372,213 186,40 394,29 676,33 443,7 583,225 590,229 203,171 237,-155 611,-105 155,21 451,-112 735,-118 136,-2 364,259 535,291 317,59 360,262 627,346 301,95 627,613 966,818 343,207 774,891 1039,1122 257,225 626,143 896,364 258,210 639,-400 909,-180 136,111 233,-115 370,0 77,65 283,-108 422,151 61,113 353,388 386,416 270,-17 465,211 731,277 272,67 615,-27 804,101 187,126 468,72 653,198l395 260 0 1944 0 6102 -33865 11 0 -12605 500 -180 426 -254z"/>
   <path class="fil18" d="M33865 62251l0 5479 -9778 3c113,-289 208,-493 254,-468 32,17 -285,-522 923,-265 103,22 420,-21 634,-489 140,-306 252,-342 483,-251 162,64 58,-227 282,-288 77,-21 241,-346 377,-206 173,178 468,76 684,-5 209,-79 143,-242 322,-400 244,-216 444,-450 668,-368 323,88 583,-499 906,-411 287,78 317,-190 527,-353 125,-97 413,-38 585,-174 154,-122 -35,-406 377,-401 136,2 216,-417 337,-479 365,-185 496,-54 676,-208 170,-144 20,-199 551,-120 615,92 511,-59 728,-305 77,-88 282,-187 465,-293z"/>
   <path class="fil18" d="M17470 67735c-1289,-1153 -2704,-2209 -3398,-1863 -147,81 -796,-2184 -942,-2103 -32,17 285,-522 -923,-265 -103,22 -420,-21 -634,-489 -140,-306 -252,-342 -483,-251 -162,64 -58,-227 -282,-288 -77,-21 -241,-346 -377,-206 -173,178 -468,76 -684,-5 -209,-79 -143,-242 -322,-400 -244,-216 -444,-450 -668,-368 -323,88 -583,-499 -906,-411 -287,78 -317,-190 -527,-353 -125,-97 -413,-38 -585,-174 -154,-122 35,-406 -377,-401 -136,2 -216,-417 -337,-479 -365,-185 -496,-54 -676,-208 -170,-144 -20,-199 -551,-120 -615,92 -511,-59 -728,-305 -131,-149 -632,-333 -764,-520 -191,-272 -616,-235 -1098,-326 -319,-60 -648,-265 -1005,-332 -334,-63 -589,-349 -932,-385 -103,-11 -191,-44 -272,-84l0 10336 17470 0z"/>
   <polygon class="fil0" style="mask:url(#id2)" points="0,0 33865,0 33865,67730 0,67730 "/>
  </g>
 </g>
</svg>
